# xmcd
#
# Track frame offsets:
#	150
#	20067
#	30018
#	40752
#	53119
#	63347
#	76586
#	94563
#	111959
#	127238
#	139947
#	152498
#	166701
#	182252
#	196836
#	215837
#	230901
#
# Disc length: 3400
#
# Revision: 2
# Processed by: cddbd v1.5.1PL0 Copyright (c) Steve Scherf et al.
# Submitted via: CDex 1.51
# Normalized: r0:TDELIM( - ),TSWAP
#
DISCID=d80d4611
DTITLE=Country Moods and Memories - Disc 3
DYEAR=1900
DGENRE=Country
TTITLE0=Kenny Rogers - Through The Years
TTITLE1=Eddy Arnold - What's He Doin' In My World
TTITLE2=Jim Reeves - He'll Have To Go
TTITLE3=Johnny Cash - I Walk The Line
TTITLE4=Conway Twitty - It's Only Make Believe
TTITLE5=Marty Robbins - Return To Me
TTITLE6=Bobby Goldsboro - Honey
TTITLE7=Billy ''Crash'' Craddock - Softly Diana
TTITLE8=B.J. Thomas - (Hey, Won't You Play) Another Somebody Done Somebody Wrong Song
TTITLE9=Lynn Anderson - Rose Garden
TTITLE10=Linda Ronstadt - I Can't Help It (If I'm Still In Love With You)
TTITLE11=Loretta Lynn - She's Got You
TTITLE12=Crystal Gayle - When I Dream
TTITLE13=Olivia Newton-John - If You Love Me (Let Me Know)
TTITLE14=Patty Loveless - Don't Toss Us Away
TTITLE15=Pam Tillis - Maybe It Was Memphis
TTITLE16=The Judds - Love Can Build A Bridge
EXTD=
EXTT0=
EXTT1=
EXTT2=
EXTT3=
EXTT4=
EXTT5=
EXTT6=
EXTT7=
EXTT8=
EXTT9=
EXTT10=
EXTT11=
EXTT12=
EXTT13=
EXTT14=
EXTT15=
EXTT16=
PLAYORDER=
